<?xml version="1.0" encoding="iso-8859-1"?>
<!-- Uploaded to: SVG Repo, www.svgrepo.com, Generator: SVG Repo Mixer Tools -->
<svg version="1.1" id="Layer_1" xmlns="http://www.w3.org/2000/svg" xmlns:xlink="http://www.w3.org/1999/xlink" 
	 viewBox="0 0 512 512" xml:space="preserve">
<rect x="66.783" style="fill:#F8F8F9;" width="378.435" height="512"/>
<rect x="256" style="fill:#EDEDED;" width="189.217" height="512"/>
<rect x="66.783" style="fill:#D8D8DA;" width="378.435" height="144.696"/>
<rect x="256" style="fill:#C6C5CA;" width="189.217" height="144.696"/>
<rect id="SVGCleanerId_0" x="133.565" y="66.783" style="fill:#F8F8F9;" width="244.87" height="155.826"/>
<g>
	<rect id="SVGCleanerId_0_1_" x="133.565" y="66.783" style="fill:#F8F8F9;" width="244.87" height="155.826"/>
</g>
<rect x="133.565" y="289.391" style="fill:#F8F8F9;" width="244.87" height="155.826"/>
<g>
	<rect x="256" y="66.783" style="fill:#EDEDED;" width="122.435" height="155.826"/>
	<rect x="256" y="289.391" style="fill:#EDEDED;" width="122.435" height="155.826"/>
</g>
<g>
	<path style="fill:#C6C5CA;" d="M116.87,50.087v189.217H395.13V50.087H116.87z M224.902,144.698l-74.641,47.498V97.198
		L224.902,144.698z M190.899,83.478h130.203L256,124.907L190.899,83.478z M256,164.487l65.097,41.426H190.903L256,164.487z
		 M287.098,144.698l74.641-47.501v95L287.098,144.698z"/>
	<path style="fill:#C6C5CA;" d="M116.87,461.913H395.13V272.696H116.87V461.913z M287.098,367.304l74.641-47.499v94.998
		L287.098,367.304z M321.1,428.522h-130.2L256,387.093L321.1,428.522z M256,347.516l-65.101-41.429h130.202L256,347.516z
		 M224.902,367.304l-74.641,47.498v-94.996L224.902,367.304z"/>
</g>
<g>
	<path style="fill:#ACAAB0;" d="M395.13,50.087H257.113v33.391h63.988l-63.988,40.72v40.998l63.984,40.717h-63.984v33.391H395.13
		V50.087z M361.739,192.197l-74.641-47.499l74.641-47.501V192.197z"/>
	<path style="fill:#ACAAB0;" d="M321.1,306.087l-63.987,40.72v40.996l63.987,40.72h-63.987v33.391H395.13V272.696H257.113v33.391
		H321.1z M361.739,414.803l-74.641-47.499l74.641-47.499V414.803z"/>
</g>
</svg>